<?xml version="1.0" standalone="no"?>
<!DOCTYPE svg PUBLIC "-//W3C//DTD SVG 20010904//EN"
 "http://www.w3.org/TR/2001/REC-SVG-20010904/DTD/svg10.dtd">
<svg version="1.0" xmlns="http://www.w3.org/2000/svg"
 width="224.000000pt" height="224.000000pt" viewBox="0 0 224.000000 224.000000"
 preserveAspectRatio="xMidYMid meet">

<g transform="translate(0.000000,224.000000) scale(0.100000,-0.100000)"
fill="#da5c5c" stroke="none">
<path d="M995 2143 c-119 -15 -225 -48 -340 -105 -446 -222 -669 -747 -519
-1223 67 -211 193 -389 370 -520 389 -290 915 -270 1292 49 89 75 182 196 240
312 64 128 84 195 107 358 13 94 13 118 0 218 -64 471 -397 824 -851 903 -79
14 -225 18 -299 8z m168 -187 c56 -23 121 -116 98 -139 -6 -6 -7 -17 -2 -26
16 -29 7 -109 -15 -138 -34 -46 -82 -73 -129 -73 -50 0 -106 25 -112 51 -3 11
-9 19 -14 19 -18 0 -59 52 -70 89 -25 83 20 184 95 217 40 17 108 18 149 0z
m-109 -392 c17 -18 26 -38 27 -63 1 -20 2 -47 3 -60 2 -53 134 -121 233 -121
39 0 45 -3 70 -42 14 -24 34 -65 42 -93 21 -65 25 -71 74 -102 55 -34 92 -77
120 -135 16 -36 27 -48 44 -48 51 0 131 -41 177 -90 25 -27 46 -56 46 -65 0
-32 -29 -26 -69 14 -43 43 -90 61 -161 61 -45 0 -121 -28 -134 -49 -4 -6 -15
-11 -24 -11 -13 0 -31 42 -76 180 -84 254 -77 241 -119 228 -43 -13 -67 -5
-67 22 0 14 -7 20 -21 20 -25 0 -118 38 -142 58 -24 21 -28 13 -34 -61 l-5
-64 58 -11 c33 -6 83 -14 112 -18 29 -4 63 -15 76 -25 13 -10 39 -59 61 -116
21 -54 49 -124 62 -155 35 -88 29 -124 -28 -154 -59 -30 -108 -1 -135 78 -9
28 -23 62 -30 77 -8 14 -14 31 -14 37 0 11 -38 94 -43 94 -22 0 -239 32 -266
40 -81 22 -107 95 -98 275 6 107 23 179 61 252 37 72 148 98 200 47z m-309
-329 l0 -240 -245 0 -245 0 -3 229 c-2 162 1 233 9 242 10 12 56 14 248 12
l236 -3 0 -240z m863 36 c19 -58 2 -148 -31 -160 -27 -10 -65 4 -96 37 -20 22
-22 33 -18 76 6 64 41 99 95 94 32 -3 37 -7 50 -47z m-616 -324 c7 -12 4 -80
-7 -119 -8 -30 9 -116 32 -161 14 -28 15 -28 101 -27 48 1 142 1 210 1 l123
-1 -3 -42 -3 -43 -267 -3 -268 -2 0 52 c0 68 -43 147 -102 185 -58 39 -154 44
-218 11 -66 -34 -112 -104 -119 -181 l-6 -62 -54 -3 c-30 -2 -58 1 -63 6 -10
10 13 127 42 209 12 35 16 59 10 61 -5 2 -10 32 -10 68 l0 64 183 2 c250 4
411 -2 419 -15z m-205 -166 c79 -36 122 -139 98 -233 -34 -127 -176 -187 -294
-123 -69 38 -95 83 -99 169 -3 65 -1 75 27 118 17 27 46 56 68 67 50 27 143
27 200 2z m989 -7 c61 -39 88 -87 91 -164 4 -76 -17 -123 -80 -174 -52 -41
-144 -49 -211 -16 -81 39 -130 142 -107 227 27 100 96 153 201 153 54 0 73 -5
106 -26z"/>
<path d="M658 664 c-26 -8 -43 -60 -30 -90 18 -38 53 -49 90 -30 79 41 27 144
-60 120z"/>
<path d="M1623 651 c-16 -13 -23 -30 -23 -54 0 -28 6 -37 33 -51 75 -41 136
40 79 107 -20 22 -61 21 -89 -2z"/>
</g>
</svg>
